<?xml version="1.0" standalone="no"?>
<!DOCTYPE svg PUBLIC "-//W3C//DTD SVG 20010904//EN"
 "http://www.w3.org/TR/2001/REC-SVG-20010904/DTD/svg10.dtd">
<svg version="1.0" xmlns="http://www.w3.org/2000/svg"
 width="209.000000pt" height="56.000000pt" viewBox="0 0 209.000000 56.000000"
 preserveAspectRatio="xMidYMid meet">
<metadata>
Created by potrace 1.10, written by Peter Selinger 2001-2011
</metadata>
<g transform="translate(0.000000,56.000000) scale(0.100000,-0.100000)"
fill="#000000" stroke="none">
<path d="M130 535 c0 -13 -4 -34 -9 -47 -17 -42 -24 -63 -26 -78 -1 -8 -23
-84 -49 -168 -26 -85 -46 -167 -44 -184 2 -21 28 52 81 228 42 143 77 262 77
267 0 4 -7 7 -15 7 -9 0 -15 -9 -15 -25z"/>
<path d="M232 284 c-46 -152 -81 -279 -77 -282 11 -11 35 30 35 59 0 15 5 31
10 34 6 3 10 17 10 30 0 13 5 27 10 30 6 3 10 15 10 26 0 23 73 270 96 324 17
42 18 55 1 55 -7 0 -44 -106 -95 -276z"/>
<path d="M386 518 c-4 -22 -10 -46 -14 -52 -3 -6 -7 -16 -8 -23 -2 -13 -23
-80 -31 -103 -4 -8 -7 -17 -8 -20 -1 -3 -5 -12 -8 -20 -6 -13 -25 -80 -42
-150 -4 -14 -9 -32 -12 -40 -7 -18 -9 -25 -18 -72 -4 -21 -3 -38 2 -38 4 0 43
116 86 258 98 326 92 302 74 302 -9 0 -17 -14 -21 -42z"/>
<path d="M515 368 c-32 -106 -60 -201 -63 -210 -4 -17 9 -18 180 -18 l184 0
20 68 19 67 73 3 c52 2 72 -1 72 -9 0 -10 -52 -186 -75 -257 -2 -6 2 -12 9
-12 21 0 95 252 83 284 -5 13 -22 16 -85 16 -88 0 -92 -3 -112 -65 -21 -66
-18 -65 -182 -65 l-150 0 6 22 c4 13 10 40 13 61 3 21 10 40 14 43 5 3 9 18 9
34 0 16 4 31 9 34 5 3 12 23 16 43 10 58 27 113 34 109 3 -2 6 7 6 20 0 64
-27 7 -80 -168z"/>
<path d="M645 550 c4 -6 -3 -35 -14 -66 -12 -30 -21 -66 -21 -80 0 -14 -4 -23
-8 -20 -4 2 -9 -11 -10 -31 -2 -20 -7 -44 -13 -54 -15 -28 20 -40 108 -37 l76
3 13 40 c8 22 18 47 22 55 5 8 15 40 22 70 6 30 16 63 21 72 12 23 12 58 0 58
-6 0 -22 -39 -36 -87 -15 -49 -34 -112 -43 -140 l-16 -53 -73 0 c-40 0 -73 2
-73 4 0 3 18 63 40 135 22 71 40 133 40 136 0 3 -9 5 -21 5 -11 0 -17 -5 -14
-10z"/>
<path d="M910 541 c0 -11 -4 -23 -10 -26 -5 -3 -10 -19 -10 -34 0 -15 -5 -32
-10 -37 -7 -7 -4 -17 8 -32 17 -19 30 -22 89 -22 81 0 86 4 109 81 9 30 20 59
25 65 9 11 2 24 -12 24 -5 0 -18 -31 -30 -70 l-21 -70 -74 0 c-41 0 -74 1 -74
3 0 1 9 31 20 67 11 36 20 66 20 68 0 1 -7 2 -15 2 -8 0 -15 -9 -15 -19z"/>
<path d="M1679 439 c-21 -8 -29 -23 -48 -87 -12 -42 -29 -92 -38 -111 -8 -19
-18 -51 -20 -73 -3 -21 -10 -41 -14 -44 -5 -3 -9 -16 -9 -29 0 -13 -4 -27 -10
-30 -13 -8 -13 -65 -1 -65 5 0 16 21 24 48 7 26 36 120 63 210 l49 162 202 0
c112 0 203 -3 203 -6 0 -3 -27 -96 -61 -206 -53 -178 -63 -226 -43 -205 3 3
23 63 45 134 21 70 44 137 50 148 7 11 14 50 17 87 l5 68 -174 0 c-96 0 -183
2 -194 5 -11 2 -32 0 -46 -6z"/>
<path d="M1389 413 c-6 -15 -12 -36 -14 -46 -10 -45 -88 -293 -96 -302 -12
-12 -12 -65 0 -65 5 0 16 21 24 48 7 26 36 120 63 210 l49 162 72 0 c40 0 73
-3 73 -7 0 -5 -27 -97 -60 -206 -33 -108 -60 -199 -60 -202 0 -3 7 -5 15 -5 8
0 15 9 15 20 0 11 4 28 9 38 5 9 14 35 20 57 6 22 27 96 47 164 27 90 34 129
27 140 -8 12 -30 17 -92 19 -81 3 -81 3 -92 -25z"/>
<path d="M1763 210 l-21 -70 54 0 53 0 21 66 c11 36 20 68 20 70 0 2 -24 4
-53 4 l-54 0 -20 -70z m85 19 c2 -14 -6 -34 -18 -47 -22 -23 -46 -25 -44 -4 1
7 2 23 3 37 0 15 7 25 17 25 8 0 13 4 10 9 -4 5 2 8 11 7 11 -2 19 -13 21 -27z"/>
<path d="M1055 148 c-18 -50 -43 -143 -40 -146 11 -11 24 14 40 73 l18 65 73
0 c41 0 74 -3 74 -7 0 -5 -9 -36 -19 -70 -14 -47 -16 -63 -7 -63 15 0 51 123
42 145 -7 20 -174 22 -181 3z"/>
</g>
</svg>
